<?xml version="1.0" encoding="utf-8"?><!-- Uploaded to: SVG Repo, www.svgrepo.com, Generator: SVG Repo Mixer Tools -->
<svg fill="#000000" width="800px" height="800px" viewBox="0 0 24 24" id="qr-code" data-name="Flat Color" xmlns="http://www.w3.org/2000/svg" class="icon flat-color"><path id="secondary" d="M13,17V14a1,1,0,0,1,1-1h3a1,1,0,0,1,1,1v3a1,1,0,0,1-1,1H14A1,1,0,0,1,13,17Zm8-4a1,1,0,0,0-1,1v5a1,1,0,0,1-1,1H14a1,1,0,0,0,0,2h5a3,3,0,0,0,3-3V14A1,1,0,0,0,21,13Z" style="fill: rgb(44, 169, 188);"></path><path id="primary" d="M22,4V9a2,2,0,0,1-2,2H15a2,2,0,0,1-2-2V4a2,2,0,0,1,2-2h5A2,2,0,0,1,22,4ZM9,13H4a2,2,0,0,0-2,2v5a2,2,0,0,0,2,2H9a2,2,0,0,0,2-2V15A2,2,0,0,0,9,13ZM9,2H4A2,2,0,0,0,2,4V9a2,2,0,0,0,2,2H9a2,2,0,0,0,2-2V4A2,2,0,0,0,9,2Z" style="fill: rgb(0, 0, 0);"></path></svg>